<?xml version="1.0" encoding="UTF-8"?>
<svg id="_图层_1" data-name="图层_1" xmlns="http://www.w3.org/2000/svg" version="1.1" viewBox="0 0 800 800">
  <!-- Generator: Adobe Illustrator 29.6.0, SVG Export Plug-In . SVG Version: 2.1.1 Build 207)  -->
  <defs>
    <style>
      .st0 {
        fill: #04314d;
      }
    </style>
  </defs>
  <path class="st0" d="M455.68,494.57c0-60.74-.07-121.56.07-182.3.07-29.17-13.05-49.49-39.67-61.12-35.02-15.3-70.19-30.3-105.29-45.44-20.1-8.7-32.1-23.25-32.47-45.74-.22-13.65,6.82-19.12,20.1-15.82,12.6,3.07,24.52,8.32,36.3,13.72,45.22,20.47,90.21,41.39,135.73,60.97,28.12,12.07,41.39,32.02,41.24,62.54-.37,87.06-.07,174.05,0,261.12,0,12.67-.07,25.35.67,37.95.82,14.47,6.15,17.47,18.97,11.25,16.27-7.8,32.25-16.12,48.67-23.47,11.4-5.1,15.52-13.27,15.52-25.5-.3-84.21-.22-168.35-.3-252.57,0-12.97.22-25.95.3-38.92.07-29.1-10.05-44.62-37.05-55.34-29.62-11.85-59.47-23.17-88.04-37.5-4.5-2.25-9.07-4.5-13.42-7.05-6.37-3.9-11.32-9.15-13.57-16.5-2.47-8.1-4.05-16.5,2.7-23.17,6.75-6.52,15.45-7.2,24-4.12,8.92,3.22,17.55,7.2,26.25,11.02,39.9,17.7,79.57,35.77,119.61,53.02,24.75,10.65,36.45,28.72,36.37,55.49-.15,110.76-.15,221.6,0,332.36.07,25.87-11.4,44.02-34.42,55.27-50.84,24.82-101.69,49.64-151.48,76.57-9.6,5.17-11.55,3.97-11.55-6.82-.07-63.29,0-126.58,0-189.95.3.07.52.07.75.07Z"/>
  <path class="st0" d="M147.62,384.93v-181.33c0-11.47,4.8-16.72,16.12-16.05,12.45.82,23.1,4.12,28.27,18,5.17,13.95,16.8,22.87,30.3,28.57,27.3,11.7,54.07,24.52,81.89,34.95,31.42,11.77,44.47,29.85,44.54,63.07.15,116.46-.07,232.92-.15,349.46,0,11.1-3.07,13.05-13.35,8.17-51.67-24.52-103.34-49.12-154.78-74.02-19.95-9.67-30.52-26.55-31.2-48.52-1.95-60.74-1.42-121.56-1.65-182.3ZM202.14,426.17q.07,0,0,0c.07,38.32.07,76.57,0,114.89,0,11.7,4.05,21.67,14.55,26.92,19.2,9.52,38.85,18.3,58.64,26.62,8.1,3.37,12.15.22,14.47-8.32,2.47-9,1.95-18.22,1.95-27.37-.07-68.32-.07-136.71-.45-205.02-.07-21.97-7.8-32.17-28.12-40.19-7.95-3.07-15.75-6.6-23.62-9.75-7.57-3.07-15.07-6.6-22.95-8.92-8.92-2.62-13.12.52-14.17,9.75-.52,4.35-.37,8.85-.37,13.27.07,36,.07,72.07.07,108.14Z"/>
</svg>