<?xml version="1.0" encoding="UTF-8"?>
<!DOCTYPE svg PUBLIC "-//W3C//DTD SVG 1.1//EN" "http://www.w3.org/Graphics/SVG/1.1/DTD/svg11.dtd">
<!-- Creator: CorelDRAW 2020 (64-Bit) -->
<svg xmlns="http://www.w3.org/2000/svg" xml:space="preserve" width="360px" height="397px" version="1.1" style="shape-rendering:geometricPrecision; text-rendering:geometricPrecision; image-rendering:optimizeQuality; fill-rule:evenodd; clip-rule:evenodd" viewBox="0 0 303.71 335.11" xmlns:xlink="http://www.w3.org/1999/xlink" xmlns:xodm="http://www.corel.com/coreldraw/odm/2003">
 <defs>
  <style type="text/css">
   <![CDATA[
    .fil0 {fill:#FF1485}
    .fil1 {fill:#FEFEFE;fill-rule:nonzero}
   ]]>
  </style>
 </defs>
 <g id="图层_x0020_1">
  <metadata id="CorelCorpID_0Corel-Layer"/>
  <path class="fil0" d="M151.85 0l-145.06 53.17c0,0 -54.46,232.74 145.06,281.94 199.53,-49.2 145.07,-281.94 145.07,-281.94l-145.07 -53.17z"/>
  <path class="fil1" d="M151.86 38.03l-114.04 40.77c-3.67,23.37 -22.78,179.52 114.04,220.36 136.81,-40.84 117.7,-196.99 114.03,-220.36l-114.03 -40.77zm-120.37 32.03c39.54,-14.14 79.05,-28.4 118.62,-42.42 1.09,-0.39 2.32,-0.42 3.49,0l118.62 42.42 -0.01 0.02c1.69,0.6 3.01,2.06 3.35,3.95 0.1,0.54 36.22,189.36 -122.08,235.45 -0.96,0.31 -2.02,0.36 -3.06,0.05 -154.59,-44.85 -124.05,-225.63 -122.34,-235.08 0.18,-1.94 1.46,-3.69 3.41,-4.39z"/>
  <path class="fil1" d="M151.85 140.13c8.75,0 16.67,4.3 22.39,11.24 5.68,6.88 9.19,16.37 9.19,26.82 0,10.45 -3.51,19.93 -9.19,26.82 -5.72,6.94 -13.64,11.24 -22.39,11.24 -8.75,0 -16.66,-4.3 -22.38,-11.24 -5.68,-6.89 -9.19,-16.37 -9.19,-26.82 0,-10.45 3.51,-19.94 9.19,-26.82 5.72,-6.94 13.63,-11.24 22.38,-11.24zm16.48 17.72c-4.22,-5.12 -10.05,-8.29 -16.48,-8.29 -6.42,0 -12.25,3.17 -16.47,8.29 -4.28,5.18 -6.35,12.37 -6.35,20.34 0,7.96 2.07,15.15 6.35,20.34 4.22,5.12 10.05,8.29 16.47,8.29 6.43,0 12.26,-3.17 16.48,-8.29 4.27,-5.19 6.35,-12.38 6.35,-20.34 0,-7.97 -2.08,-15.16 -6.35,-20.34z"/>
  <path class="fil1" d="M116.9 212.07c0.33,2.58 -1.49,4.93 -4.06,5.25 -2.58,0.33 -4.93,-1.5 -5.25,-4.07l-6.11 -47.72 -15.06 42.88c-0.67,1.93 -2.47,3.14 -4.4,3.16 -1.93,-0.02 -3.74,-1.23 -4.41,-3.16l-15.05 -42.88 -6.11 47.72c-0.33,2.57 -2.68,4.4 -5.25,4.07 -2.57,-0.32 -4.39,-2.67 -4.07,-5.25l8.63 -67.4c0.32,-2.57 2.67,-4.39 5.24,-4.07 1.83,0.24 3.28,1.49 3.85,3.12l0 0 17.17 48.88 17.16 -48.88 0.01 0c0.57,-1.63 2.01,-2.88 3.84,-3.12 2.57,-0.32 4.92,1.5 5.25,4.07l8.62 67.4z"/>
  <path class="fil1" d="M242.47 206.82c2.61,0 4.72,2.11 4.72,4.71 0,2.6 -2.11,4.71 -4.72,4.71l-44.38 0c-2.61,0 -4.72,-2.11 -4.72,-4.71l0 -33.37 0 -33.93c0,-2.61 2.11,-4.72 4.72,-4.72l44.38 0c2.61,0 4.72,2.11 4.72,4.72 0,2.6 -2.11,4.71 -4.72,4.71l-39.67 0 0 24.51 39.11 0c2.6,0 4.71,2.11 4.71,4.71 0,2.61 -2.11,4.71 -4.71,4.71l-39.11 0 0 23.95 39.67 0z"/>
  <path class="fil1" d="M154.13 51.37l5.51 9.99 11.22 2.15c1.4,0.27 2.32,1.63 2.05,3.03 -0.1,0.53 -0.36,1 -0.71,1.35l-7.75 8.27 1.42 11.35c0.17,1.42 -0.84,2.71 -2.26,2.89 -0.58,0.07 -1.14,-0.06 -1.6,-0.33l-10.16 -4.76 -10.35 4.85c-1.29,0.61 -2.83,0.05 -3.43,-1.24 -0.21,-0.46 -0.28,-0.94 -0.23,-1.41l0 0 1.42 -11.35 -7.81 -8.33c-0.98,-1.04 -0.93,-2.68 0.11,-3.66 0.37,-0.35 0.82,-0.57 1.29,-0.66l11.22 -2.15 5.51 -10c0.69,-1.26 2.27,-1.72 3.52,-1.03 0.45,0.25 0.8,0.62 1.03,1.04z"/>
  <path class="fil1" d="M234.76 76.35l-6.34 9.48 -11.37 1.17c-1.42,0.15 -2.46,1.42 -2.31,2.84 0.06,0.54 0.27,1.02 0.6,1.41l7 8.9 -2.39 11.19c-0.3,1.4 0.6,2.77 2,3.07 0.57,0.12 1.13,0.04 1.62,-0.19l10.53 -3.87 9.89 5.74c1.24,0.71 2.82,0.29 3.53,-0.95 0.25,-0.43 0.36,-0.91 0.35,-1.38l0.01 0 -0.44 -11.43 8.5 -7.63c1.06,-0.95 1.15,-2.58 0.2,-3.65 -0.34,-0.38 -0.77,-0.63 -1.22,-0.76l-11 -3.12 -4.63 -10.44c-0.57,-1.31 -2.1,-1.9 -3.41,-1.33 -0.47,0.21 -0.85,0.55 -1.12,0.95zm-165.81 0l6.34 9.48 11.37 1.17c1.42,0.15 2.45,1.42 2.31,2.84 -0.06,0.54 -0.28,1.02 -0.6,1.41l-7 8.9 2.39 11.19c0.3,1.4 -0.6,2.77 -2,3.07 -0.57,0.12 -1.14,0.04 -1.63,-0.19l-10.52 -3.87 -9.89 5.74c-1.24,0.71 -2.82,0.29 -3.53,-0.95 -0.25,-0.43 -0.36,-0.91 -0.35,-1.38l-0.01 0 0.44 -11.43 -8.5 -7.63c-1.06,-0.95 -1.15,-2.58 -0.2,-3.65 0.34,-0.38 0.76,-0.63 1.22,-0.76l11 -3.12 4.62 -10.44c0.58,-1.31 2.11,-1.9 3.42,-1.33 0.47,0.21 0.85,0.55 1.12,0.95z"/>
 </g>
</svg>